<svg data-v-423bf9ae="" xmlns="http://www.w3.org/2000/svg" viewBox="0 0 488 90" class="iconLeftSlogan"><!----><!----><!----><g data-v-423bf9ae="" id="8ecc9f50-f1c5-47e4-a515-4c85e49c7dfb" fill="#000000" transform="matrix(5.4744525356903475,0,0,5.4744525356903475,98.3909065851146,-15.273722842579438)"><path d="M8.20 10.71C8.20 9.24 7.01 8.19 5.64 7.97C6.79 7.80 7.73 6.90 7.73 5.70C7.73 3.77 5.99 3.30 4.38 3.30L0.74 3.30C0.76 3.37 0.94 4.13 0.94 4.16L0.94 13.55L4.52 13.55C6.33 13.55 8.20 12.81 8.20 10.71ZM5.70 5.96C5.70 6.78 5.10 7.31 4.31 7.31L2.87 7.31L2.87 4.69L4.27 4.69C5.10 4.69 5.70 5.07 5.70 5.96ZM6.17 10.49C6.17 11.55 5.43 12.17 4.40 12.17L2.87 12.17L2.87 8.69L3.96 8.69C5.08 8.69 6.17 9.23 6.17 10.49ZM15.74 10.07C15.74 8.05 14.46 6.41 12.35 6.41C10.26 6.41 8.96 8.06 8.96 10.07C8.96 12.08 10.23 13.72 12.35 13.72C14.46 13.72 15.74 12.08 15.74 10.07ZM13.89 10.08C13.89 11.10 13.66 12.60 12.35 12.60C11.07 12.60 10.81 11.06 10.81 10.08C10.81 9.10 11.07 7.56 12.35 7.56C13.66 7.56 13.89 9.06 13.89 10.08ZM23.24 10.07C23.24 8.05 21.97 6.41 19.85 6.41C17.77 6.41 16.46 8.06 16.46 10.07C16.46 12.08 17.74 13.72 19.85 13.72C21.97 13.72 23.24 12.08 23.24 10.07ZM21.39 10.08C21.39 11.10 21.17 12.60 19.85 12.60C18.58 12.60 18.31 11.06 18.31 10.08C18.31 9.10 18.58 7.56 19.85 7.56C21.17 7.56 21.39 9.06 21.39 10.08ZM28.59 13.55L30.48 13.55L27.82 9.53L30.07 6.59L28.43 6.59L26.28 9.46L26.28 2.79L24.37 2.79L24.56 3.54L24.56 13.55L26.28 13.55L26.28 9.98ZM40.49 13.55L42.42 13.55L42.42 3.30L40.49 3.30L40.49 7.59L36.19 7.59L36.19 3.30L34.06 3.30C34.08 3.37 34.26 4.13 34.26 4.16L34.26 13.55L36.19 13.55L36.19 8.97L40.49 8.97ZM50.46 10.07C50.46 8.05 49.18 6.41 47.07 6.41C44.98 6.41 43.68 8.06 43.68 10.07C43.68 12.08 44.95 13.72 47.07 13.72C49.18 13.72 50.46 12.08 50.46 10.07ZM48.61 10.08C48.61 11.10 48.38 12.60 47.07 12.60C45.79 12.60 45.53 11.06 45.53 10.08C45.53 9.10 45.79 7.56 47.07 7.56C48.38 7.56 48.61 9.06 48.61 10.08ZM58.86 13.29L58.56 12.26C58.35 12.32 58.11 12.43 57.90 12.43C57.55 12.43 57.55 11.94 57.55 11.70L57.55 6.59L55.68 6.59C55.69 6.66 55.85 7.32 55.85 7.35L55.85 11.05C55.85 11.87 55.15 12.40 54.36 12.40C53.55 12.40 53.45 11.65 53.45 11.00L53.45 6.59L51.59 6.59L51.74 7.35L51.74 11.30C51.74 12.75 52.22 13.75 53.83 13.75C54.70 13.75 55.52 13.34 56.13 12.73C56.24 13.27 56.64 13.66 57.22 13.66C57.75 13.66 58.34 13.43 58.86 13.29ZM64.06 11.38C64.06 8.97 61.00 9.58 61.00 8.29C61.00 7.76 61.49 7.55 61.95 7.55C62.43 7.55 62.96 7.73 63.34 8.02L63.92 6.85C63.34 6.55 62.51 6.41 61.87 6.41C60.55 6.41 59.18 7.11 59.18 8.60C59.18 10.89 62.24 10.25 62.24 11.66C62.24 12.28 61.75 12.56 61.19 12.56C60.62 12.56 60.09 12.28 59.61 12.00L59.01 13.15C59.67 13.51 60.59 13.75 61.33 13.75C62.72 13.75 64.06 12.88 64.06 11.38ZM71.11 9.44C71.11 7.62 70.07 6.40 68.21 6.40C66.11 6.40 64.95 8.16 64.95 10.12C64.95 12.28 66.26 13.71 68.45 13.71C69.22 13.71 70.31 13.48 70.94 12.96L70.22 11.84C69.80 12.26 69.12 12.59 68.53 12.59C67.30 12.59 66.72 11.34 66.72 10.28L70.39 10.28C70.95 10.28 71.11 9.93 71.11 9.44ZM69.36 8.86C69.36 9.04 69.33 9.17 69.12 9.17L66.77 9.17C66.81 8.44 67.44 7.55 68.22 7.55C68.99 7.55 69.36 8.15 69.36 8.86Z"></path></g><defs data-v-423bf9ae=""><linearGradient data-v-423bf9ae="" gradientTransform="rotate(25)" id="664563d0-65c9-46e6-ba17-33e778de5154" x1="0%" y1="0%" x2="100%" y2="0%"><stop data-v-423bf9ae="" offset="0%" style="stop-color: rgb(201, 58, 95); stop-opacity: 1;"></stop><stop data-v-423bf9ae="" offset="100%" style="stop-color: rgb(239, 176, 202); stop-opacity: 1;"></stop></linearGradient></defs><g data-v-423bf9ae="" id="8ae31f5c-d30a-45dd-b55b-7bec335f9db3" transform="matrix(1,0,0,1,-8.221004486083984,-4)" stroke="none" fill="url(#664563d0-65c9-46e6-ba17-33e778de5154)"><path d="M49.649 54.98c1.453 0 2.818.357 3.858.963-1.088.445-2.547.827-3.858.827-1.243 0-2.677-.424-3.738-.896 1.027-.562 2.349-.894 3.738-.894zm-35.711-1.921V66.87h6.774c.181 0 .359.045.519.131.158.085 3.849 2.136 3.849 6.806 0 4.54-3.613 7.54-3.767 7.665-.194.16-.438.246-.689.246h-6.686v7.344c3.003-.598 6.135-.9 9.331-.9 7.661 0 14.736 2.48 20.297 4.883V57.177c-6.732-3.348-13.554-5.063-20.297-5.063-3.205 0-6.339.318-9.331.945zm8.961 20.748c0-2.823-1.862-4.326-2.497-4.756h-7.581a1.09 1.09 0 0 1-1.091-1.091c0-.045.02-.083.026-.127v-1.666c-1.488 1.524-3.206 3.879-3.21 6.842-.005 4.071 3.651 6.103 4.515 6.526h7.141c.729-.705 2.697-2.875 2.697-5.728zm28.135-40.326c7.9 0 14.327-6.428 14.327-14.328S58.934 4.826 51.034 4.826s-14.327 6.427-14.327 14.327 6.427 14.328 14.327 14.328zm-1.385 19.318c.982 0 1.928.131 2.809.37 6.158-6.134 15.049-8.326 21.745-9.058l-1.088-3.273a7.738 7.738 0 0 0-7.355-5.306H33.649a7.753 7.753 0 0 0-7.097 4.636l-1.711 3.899c6.729.684 15.851 2.829 22.141 9.069a10.713 10.713 0 0 1 2.667-.337zm-32.482-6.811v4.336a48.896 48.896 0 0 1 6.101-.392c6.784 0 13.628 1.646 20.375 4.858a7.23 7.23 0 0 1 1.115-.768c-8.901-8.081-23.631-8.166-27.591-8.034zM87.832 67.96a1.09 1.09 0 0 1-1.091 1.091c-.005 0-.009-.003-.014-.003-.005 0-.009.003-.014.003h-7.581c-.639.431-2.497 1.93-2.497 4.756 0 2.875 1.962 5.027 2.694 5.729h7.147c.879-.425 4.517-2.43 4.512-6.526-.004-2.927-1.681-5.26-3.156-6.785v1.735zm-42.085-9.787v35.809c1.433.58 2.614.844 3.903.844 1.214 0 2.477-.249 3.903-.742V58.255c-1.155.393-2.534.698-3.903.698-1.349-.001-2.748-.348-3.903-.78zm32.475 23.298c-.154-.125-3.767-3.125-3.767-7.665 0-4.671 3.692-6.721 3.849-6.806.16-.086.338-.131.519-.131h6.829v-13.81a45.56 45.56 0 0 0-9.331-.945c-7.62 0-14.895 1.839-20.587 5.164v35.975c5.117-2.031 13.579-5.361 20.628-5.091 2.843.107 6.113.3 9.289.905v-7.35h-6.74c-.252 0-.496-.086-.689-.246zm4.087-31.163v-4.319c-3.974-.141-18.779-.04-27.663 8.096.372.22.724.459 1.036.73 5.853-3.146 13.094-4.882 20.638-4.882 2.029 0 4.028.134 5.989.375z"></path></g><!----><g data-v-423bf9ae="" id="44bb16a6-aead-4e64-aa19-85062092d3e3" fill="#000000" transform="matrix(0.4500698274620586,0,0,0.4500698274620586,102.20347158873719,58.294233513926166)"><path d="M10.00 13.22L9.53 13.17L5.75 3.91L5.04 3.91L1.25 13.17L0.80 13.22C0.62 13.23 0.53 13.33 0.53 13.50L0.53 13.82L0.98 13.82L1.27 13.82L1.53 13.82L1.62 13.82L2.94 13.82L2.94 13.50C2.94 13.31 2.83 13.23 2.62 13.22C2.60 13.22 2.58 13.20 2.53 13.20C2.49 13.20 2.44 13.19 2.34 13.19C2.24 13.19 2.11 13.19 1.97 13.17L2.95 10.75L3.02 10.57L7.76 10.57L7.83 10.75L8.81 13.17C8.67 13.19 8.55 13.19 8.46 13.19C8.36 13.19 8.29 13.20 8.25 13.20C8.20 13.20 8.18 13.22 8.16 13.22C7.95 13.23 7.84 13.31 7.84 13.50L7.84 13.82L9.16 13.82L9.25 13.82L9.52 13.82L9.80 13.82L10.26 13.82L10.26 13.50C10.26 13.33 10.18 13.23 10.00 13.22ZM5.19 5.22C5.22 5.14 5.26 5.04 5.29 4.94C5.32 4.84 5.36 4.75 5.39 4.63C5.42 4.75 5.46 4.84 5.49 4.94C5.52 5.04 5.56 5.12 5.59 5.21L7.55 10.04L3.25 10.04ZM36.86 13.29L36.76 13.29L36.58 13.29C36.50 13.29 36.41 13.27 36.33 13.27L33.36 9.53C33.28 9.42 33.17 9.32 33.05 9.25C33.49 9.21 33.88 9.11 34.23 8.96C34.58 8.81 34.86 8.61 35.11 8.37C35.35 8.13 35.55 7.85 35.67 7.55C35.80 7.24 35.87 6.89 35.87 6.51C35.87 5.66 35.59 5.03 35.03 4.58C34.47 4.14 33.61 3.92 32.47 3.92L30.06 3.92L28.88 3.92L28.88 4.19C28.88 4.34 28.97 4.42 29.15 4.44L29.29 4.44C29.36 4.44 29.46 4.45 29.60 4.45C29.74 4.45 29.89 4.47 30.06 4.47L30.06 13.26C29.89 13.26 29.74 13.27 29.60 13.27C29.46 13.27 29.36 13.29 29.29 13.29L29.15 13.29C28.97 13.30 28.87 13.38 28.87 13.54L28.87 13.82L30.06 13.82L30.77 13.82L31.95 13.82L31.95 13.54C31.95 13.38 31.85 13.30 31.67 13.29L31.53 13.29C31.46 13.29 31.36 13.27 31.22 13.27C31.08 13.27 30.94 13.26 30.77 13.26L30.77 9.34L31.95 9.34C32.14 9.34 32.28 9.35 32.37 9.39C32.45 9.44 32.54 9.52 32.62 9.62L35.80 13.64C35.85 13.71 35.90 13.75 35.95 13.78C36.01 13.80 36.08 13.82 36.15 13.82L36.22 13.82L36.76 13.82L37.13 13.82L37.13 13.54C37.13 13.38 37.04 13.30 36.86 13.29ZM32.37 8.81L30.77 8.81L30.77 4.48L32.47 4.48C33.35 4.48 34.02 4.66 34.48 5.00C34.94 5.33 35.17 5.87 35.17 6.57C35.17 6.92 35.11 7.21 34.99 7.49C34.86 7.77 34.66 7.99 34.43 8.19C34.19 8.39 33.89 8.55 33.54 8.65C33.19 8.75 32.80 8.81 32.37 8.81ZM46.52 3.92L45.33 3.92L45.33 4.19C45.33 4.34 45.43 4.42 45.61 4.44L45.75 4.44C45.82 4.44 45.92 4.45 46.06 4.45C46.20 4.45 46.35 4.47 46.52 4.47L46.52 13.26C46.35 13.26 46.20 13.27 46.06 13.27C45.92 13.27 45.82 13.29 45.75 13.29L45.61 13.29C45.43 13.30 45.35 13.38 45.35 13.54L45.35 13.82L46.52 13.82L52.46 13.82L52.46 13.22L52.46 11.76L52.11 11.76C51.91 11.76 51.83 11.89 51.81 12.11C51.81 12.14 51.80 12.19 51.80 12.29C51.80 12.39 51.80 12.53 51.79 12.74C51.77 12.95 51.76 13.09 51.76 13.22L47.24 13.22L47.24 9.09L51.18 9.09L51.18 8.51L47.24 8.51L47.24 4.51L51.76 4.51C51.79 5.12 51.81 5.50 51.81 5.63C51.83 5.85 51.91 5.96 52.11 5.96L52.46 5.96L52.46 4.51L52.46 3.92ZM70.34 13.22L69.87 13.17L66.09 3.91L65.38 3.91L61.59 13.17L61.14 13.22C60.96 13.23 60.87 13.33 60.87 13.50L60.87 13.82L61.32 13.82L61.61 13.82L61.87 13.82L61.96 13.82L63.28 13.82L63.28 13.50C63.28 13.31 63.17 13.23 62.96 13.22C62.94 13.22 62.92 13.20 62.87 13.20C62.83 13.20 62.78 13.19 62.68 13.19C62.58 13.19 62.45 13.19 62.31 13.17L63.29 10.75L63.36 10.57L68.10 10.57L68.17 10.75L69.15 13.17C69.01 13.19 68.89 13.19 68.80 13.19C68.70 13.19 68.63 13.20 68.59 13.20C68.54 13.20 68.52 13.22 68.50 13.22C68.29 13.23 68.18 13.31 68.18 13.50L68.18 13.82L69.50 13.82L69.59 13.82L69.86 13.82L70.14 13.82L70.60 13.82L70.60 13.50C70.60 13.33 70.52 13.23 70.34 13.22ZM65.53 5.22C65.56 5.14 65.60 5.04 65.63 4.94C65.66 4.84 65.70 4.75 65.73 4.63C65.76 4.75 65.80 4.84 65.83 4.94C65.86 5.04 65.90 5.12 65.93 5.21L67.89 10.04L63.59 10.04ZM87.84 6.80C87.61 6.19 87.29 5.68 86.87 5.25C86.45 4.82 85.96 4.48 85.39 4.26C84.81 4.03 84.15 3.92 83.45 3.92L80.02 3.92L78.83 3.92L78.83 4.19C78.83 4.34 78.93 4.42 79.11 4.44L79.25 4.44C79.32 4.44 79.42 4.45 79.56 4.45C79.70 4.45 79.86 4.47 80.02 4.47L80.02 13.26C79.86 13.26 79.70 13.27 79.56 13.27C79.42 13.27 79.32 13.29 79.25 13.29L79.11 13.29C78.93 13.30 78.83 13.38 78.83 13.54L78.83 13.82L80.02 13.82L83.45 13.82C84.15 13.82 84.81 13.71 85.39 13.48C85.96 13.26 86.45 12.92 86.87 12.49C87.29 12.05 87.61 11.54 87.84 10.92C88.06 10.30 88.19 9.63 88.19 8.86C88.19 8.11 88.06 7.42 87.84 6.80ZM87.15 10.72C86.95 11.27 86.70 11.72 86.35 12.10C86.00 12.47 85.58 12.75 85.09 12.95C84.60 13.15 84.06 13.24 83.45 13.24L80.74 13.24L80.74 4.49L83.45 4.49C84.06 4.49 84.60 4.59 85.09 4.79C85.58 4.98 86.00 5.26 86.35 5.64C86.70 6.02 86.95 6.47 87.15 7.01C87.35 7.56 87.44 8.18 87.44 8.86C87.44 9.56 87.35 10.18 87.15 10.72ZM97.66 3.92L96.47 3.92L96.47 4.19C96.47 4.34 96.57 4.42 96.75 4.44L96.89 4.44C96.96 4.44 97.06 4.45 97.20 4.45C97.34 4.45 97.50 4.47 97.66 4.47L97.66 13.26C97.50 13.26 97.34 13.27 97.20 13.27C97.06 13.27 96.96 13.29 96.89 13.29L96.75 13.29C96.57 13.30 96.49 13.38 96.49 13.54L96.49 13.82L97.66 13.82L103.60 13.82L103.60 13.22L103.60 11.76L103.25 11.76C103.05 11.76 102.97 11.89 102.96 12.11C102.96 12.14 102.94 12.19 102.94 12.29C102.94 12.39 102.94 12.53 102.93 12.74C102.91 12.95 102.90 13.09 102.90 13.22L98.38 13.22L98.38 9.09L102.33 9.09L102.33 8.51L98.38 8.51L98.38 4.51L102.90 4.51C102.93 5.12 102.96 5.50 102.96 5.63C102.97 5.85 103.05 5.96 103.25 5.96L103.60 5.96L103.60 4.51L103.60 3.92ZM120.18 13.29L120.08 13.29L119.90 13.29C119.81 13.29 119.73 13.27 119.64 13.27L116.68 9.53C116.59 9.42 116.48 9.32 116.37 9.25C116.80 9.21 117.19 9.11 117.54 8.96C117.89 8.81 118.17 8.61 118.43 8.37C118.66 8.13 118.86 7.85 118.99 7.55C119.11 7.24 119.18 6.89 119.18 6.51C119.18 5.66 118.90 5.03 118.34 4.58C117.78 4.14 116.93 3.92 115.78 3.92L113.37 3.92L112.20 3.92L112.20 4.19C112.20 4.34 112.28 4.42 112.46 4.44L112.60 4.44C112.67 4.44 112.77 4.45 112.91 4.45C113.05 4.45 113.20 4.47 113.37 4.47L113.37 13.26C113.20 13.26 113.05 13.27 112.91 13.27C112.77 13.27 112.67 13.29 112.60 13.29L112.46 13.29C112.28 13.30 112.18 13.38 112.18 13.54L112.18 13.82L113.37 13.82L114.09 13.82L115.26 13.82L115.26 13.54C115.26 13.38 115.16 13.30 114.98 13.29L114.84 13.29C114.77 13.29 114.67 13.27 114.53 13.27C114.39 13.27 114.25 13.26 114.09 13.26L114.09 9.34L115.26 9.34C115.46 9.34 115.60 9.35 115.68 9.39C115.77 9.44 115.85 9.52 115.93 9.62L119.11 13.64C119.17 13.71 119.21 13.75 119.27 13.78C119.32 13.80 119.39 13.82 119.46 13.82L119.53 13.82L120.08 13.82L120.44 13.82L120.44 13.54C120.44 13.38 120.36 13.30 120.18 13.29ZM115.68 8.81L114.09 8.81L114.09 4.48L115.78 4.48C116.66 4.48 117.33 4.66 117.80 5.00C118.26 5.33 118.48 5.87 118.48 6.57C118.48 6.92 118.43 7.21 118.30 7.49C118.17 7.77 117.98 7.99 117.74 8.19C117.50 8.39 117.21 8.55 116.86 8.65C116.51 8.75 116.12 8.81 115.68 8.81ZM145.39 11.97C145.19 11.97 145.11 12.08 145.10 12.31C145.10 12.32 145.10 12.38 145.08 12.43C145.07 12.49 145.07 12.59 145.05 12.71C145.04 12.84 145.03 13.01 145.01 13.20L140.92 13.20L140.92 4.47C141.09 4.47 141.23 4.45 141.37 4.45C141.51 4.45 141.62 4.44 141.69 4.44L141.82 4.44C142.00 4.42 142.10 4.34 142.10 4.19L142.10 3.92L140.92 3.92L140.21 3.92L139.02 3.92L139.02 4.19C139.02 4.34 139.12 4.42 139.30 4.44L139.44 4.44C139.51 4.44 139.61 4.45 139.75 4.45C139.89 4.45 140.04 4.47 140.21 4.47L140.21 13.26C140.04 13.26 139.89 13.27 139.75 13.27C139.61 13.27 139.51 13.29 139.44 13.29L139.30 13.29C139.12 13.30 139.02 13.38 139.02 13.54L139.02 13.82L140.21 13.82L145.49 13.82L145.61 13.82L145.74 13.82L145.74 13.55L145.74 12.99L145.74 11.97L145.46 11.97ZM156.98 4.44C157.16 4.42 157.25 4.34 157.25 4.19L157.25 3.91L156.07 3.91L155.36 3.91L154.17 3.91L154.17 4.19C154.17 4.34 154.27 4.42 154.45 4.44L154.59 4.44C154.66 4.44 154.76 4.45 154.90 4.45C155.04 4.45 155.19 4.47 155.36 4.47L155.36 13.26C155.19 13.26 155.04 13.27 154.90 13.27C154.76 13.27 154.66 13.29 154.59 13.29L154.45 13.29C154.27 13.30 154.17 13.38 154.17 13.54L154.17 13.82L155.36 13.82L156.07 13.82L157.25 13.82L157.25 13.54C157.25 13.38 157.16 13.30 156.98 13.29L156.84 13.29C156.77 13.29 156.67 13.27 156.53 13.27C156.39 13.27 156.24 13.26 156.07 13.26L156.07 4.47C156.24 4.47 156.39 4.45 156.53 4.45C156.67 4.45 156.77 4.44 156.84 4.44ZM174.64 3.92L174.08 3.92L174.05 3.92L172.58 3.92L172.58 4.19C172.58 4.34 172.66 4.42 172.84 4.44L172.97 4.44C173.03 4.44 173.11 4.45 173.24 4.45C173.36 4.45 173.50 4.47 173.66 4.47L170.45 12.32C170.37 12.53 170.30 12.75 170.24 13.01C170.18 12.77 170.11 12.53 170.03 12.32L166.80 4.47C166.95 4.47 167.10 4.45 167.23 4.45C167.36 4.45 167.44 4.44 167.50 4.44L167.61 4.44C167.79 4.42 167.89 4.34 167.89 4.19L167.89 3.92L166.39 3.92L165.83 3.92L165.23 3.92L165.23 4.19C165.23 4.34 165.33 4.42 165.51 4.44L165.61 4.44C165.65 4.44 165.72 4.45 165.79 4.45C165.86 4.45 165.96 4.47 166.05 4.47L169.92 13.82L170.55 13.82L174.41 4.47C174.51 4.47 174.61 4.45 174.68 4.45C174.75 4.45 174.82 4.44 174.86 4.44L174.94 4.44C175.13 4.42 175.22 4.34 175.22 4.19L175.22 3.92ZM184.46 3.92L183.27 3.92L183.27 4.19C183.27 4.34 183.37 4.42 183.55 4.44L183.69 4.44C183.76 4.44 183.86 4.45 184.00 4.45C184.14 4.45 184.30 4.47 184.46 4.47L184.46 13.26C184.30 13.26 184.14 13.27 184.00 13.27C183.86 13.27 183.76 13.29 183.69 13.29L183.55 13.29C183.37 13.30 183.29 13.38 183.29 13.54L183.29 13.82L184.46 13.82L190.40 13.82L190.40 13.22L190.40 11.76L190.05 11.76C189.85 11.76 189.77 11.89 189.76 12.11C189.76 12.14 189.74 12.19 189.74 12.29C189.74 12.39 189.74 12.53 189.73 12.74C189.71 12.95 189.70 13.09 189.70 13.22L185.18 13.22L185.18 9.09L189.13 9.09L189.13 8.51L185.18 8.51L185.18 4.51L189.70 4.51C189.73 5.12 189.76 5.50 189.76 5.63C189.77 5.85 189.85 5.96 190.05 5.96L190.40 5.96L190.40 4.51L190.40 3.92ZM204.71 9.91C204.57 9.65 204.37 9.39 204.13 9.21C203.90 9.03 203.64 8.88 203.35 8.75C203.06 8.62 202.73 8.51 202.43 8.41C202.12 8.32 201.81 8.20 201.52 8.11C201.22 7.99 200.96 7.87 200.72 7.71C200.48 7.56 200.30 7.38 200.16 7.15C200.02 6.93 199.93 6.65 199.93 6.31C199.93 6.06 199.99 5.82 200.09 5.59C200.19 5.35 200.33 5.15 200.51 4.97C200.69 4.79 200.91 4.65 201.19 4.55C201.47 4.45 201.78 4.40 202.15 4.40C202.82 4.40 203.43 4.51 203.99 4.75C204.04 5.54 204.06 5.99 204.06 6.06C204.08 6.29 204.16 6.41 204.36 6.41L204.69 6.41L204.69 4.38C203.81 4.00 202.97 3.81 202.15 3.81C201.68 3.81 201.28 3.88 200.91 4.02C200.55 4.16 200.26 4.34 200.02 4.58C199.78 4.82 199.58 5.08 199.46 5.39C199.33 5.70 199.28 6.02 199.28 6.36C199.28 6.78 199.35 7.14 199.49 7.42C199.63 7.70 199.82 7.92 200.06 8.12C200.30 8.32 200.55 8.46 200.84 8.58C201.14 8.71 201.46 8.82 201.77 8.92C202.08 9.02 202.37 9.11 202.68 9.21C202.97 9.31 203.24 9.45 203.48 9.60C203.71 9.76 203.90 9.94 204.04 10.16C204.18 10.39 204.25 10.68 204.25 11.03C204.25 11.35 204.19 11.66 204.08 11.94C203.97 12.22 203.81 12.46 203.60 12.67C203.39 12.88 203.13 13.05 202.82 13.16C202.51 13.29 202.16 13.33 201.77 13.33C200.98 13.33 200.33 13.20 199.79 12.95C199.78 12.75 199.78 12.54 199.77 12.32C199.75 12.10 199.75 11.91 199.74 11.76C199.72 11.61 199.72 11.52 199.72 11.51C199.71 11.28 199.61 11.17 199.42 11.17L199.08 11.17L199.08 13.02L199.08 13.20L199.08 13.38C199.93 13.75 200.82 13.93 201.74 13.93C202.24 13.93 202.69 13.85 203.08 13.69C203.48 13.54 203.81 13.31 204.08 13.05C204.34 12.78 204.57 12.46 204.71 12.10C204.85 11.73 204.92 11.34 204.92 10.92C204.92 10.51 204.85 10.18 204.71 9.91ZM232.85 13.22L232.39 13.17L228.61 3.91L227.89 3.91L224.10 13.17L223.65 13.22C223.47 13.23 223.38 13.33 223.38 13.50L223.38 13.82L223.83 13.82L224.13 13.82L224.38 13.82L224.48 13.82L225.79 13.82L225.79 13.50C225.79 13.31 225.68 13.23 225.47 13.22C225.46 13.22 225.43 13.20 225.39 13.20C225.34 13.20 225.29 13.19 225.19 13.19C225.09 13.19 224.97 13.19 224.83 13.17L225.81 10.75L225.88 10.57L230.61 10.57L230.68 10.75L231.66 13.17C231.52 13.19 231.41 13.19 231.31 13.19C231.21 13.19 231.14 13.20 231.10 13.20C231.06 13.20 231.03 13.22 231.01 13.22C230.80 13.23 230.69 13.31 230.69 13.50L230.69 13.82L232.01 13.82L232.11 13.82L232.37 13.82L232.65 13.82L233.11 13.82L233.11 13.50C233.11 13.33 233.03 13.23 232.85 13.22ZM228.05 5.22C228.07 5.14 228.12 5.04 228.14 4.94C228.17 4.84 228.21 4.75 228.24 4.63C228.27 4.75 228.31 4.84 228.34 4.94C228.37 5.04 228.41 5.12 228.44 5.21L230.40 10.04L226.10 10.04ZM259.24 3.92L259.04 3.92L251.75 3.92L251.54 3.92L251.44 3.92L251.44 5.96L251.79 5.96C251.99 5.96 252.07 5.85 252.08 5.63C252.08 5.53 252.11 5.17 252.14 4.52L255.04 4.52L255.04 13.26C254.87 13.26 254.73 13.27 254.59 13.27C254.45 13.27 254.34 13.29 254.27 13.29L254.14 13.29C253.96 13.30 253.86 13.38 253.86 13.54L253.86 13.82L255.04 13.82L255.75 13.82L256.94 13.82L256.94 13.54C256.94 13.38 256.84 13.30 256.66 13.29L256.52 13.29C256.45 13.29 256.35 13.27 256.21 13.27C256.07 13.27 255.92 13.26 255.75 13.26L255.75 4.52L258.64 4.52C258.68 5.24 258.69 5.60 258.69 5.63C258.71 5.85 258.80 5.96 259 5.96L259.34 5.96L259.34 3.92ZM277.17 4.44C277.35 4.42 277.45 4.34 277.45 4.19L277.45 3.92L276.28 3.92L275.55 3.92L274.37 3.92L274.37 4.19C274.37 4.34 274.47 4.42 274.65 4.44L274.78 4.44C274.85 4.44 274.96 4.45 275.10 4.45C275.24 4.45 275.38 4.47 275.55 4.47L275.55 8.53L269.35 8.53L269.35 4.47C269.51 4.47 269.67 4.45 269.81 4.45C269.95 4.45 270.05 4.44 270.12 4.44L270.26 4.44C270.44 4.42 270.52 4.34 270.52 4.19L270.52 3.92L269.35 3.92L268.63 3.92L267.44 3.92L267.44 4.19C267.44 4.34 267.54 4.42 267.72 4.44L267.86 4.44C267.93 4.44 268.03 4.45 268.17 4.45C268.31 4.45 268.46 4.47 268.63 4.47L268.63 13.26C268.46 13.26 268.31 13.27 268.17 13.27C268.03 13.27 267.93 13.29 267.86 13.29L267.72 13.29C267.54 13.30 267.44 13.38 267.44 13.54L267.44 13.82L268.63 13.82L269.35 13.82L270.52 13.82L270.52 13.54C270.52 13.38 270.44 13.30 270.26 13.29L270.12 13.29C270.05 13.29 269.95 13.27 269.81 13.27C269.67 13.27 269.51 13.26 269.35 13.26L269.35 9.07L275.55 9.07L275.55 13.26C275.38 13.26 275.24 13.27 275.10 13.27C274.96 13.27 274.85 13.29 274.78 13.29L274.65 13.29C274.47 13.30 274.37 13.38 274.37 13.54L274.37 13.82L275.55 13.82L276.28 13.82L277.45 13.82L277.45 13.54C277.45 13.38 277.35 13.30 277.17 13.29L277.05 13.29C276.98 13.29 276.86 13.27 276.72 13.27C276.58 13.27 276.44 13.26 276.28 13.26L276.28 4.47C276.44 4.47 276.58 4.45 276.72 4.45C276.86 4.45 276.98 4.44 277.05 4.44ZM295.06 8.86C295.06 8.11 294.94 7.41 294.71 6.79C294.49 6.17 294.17 5.64 293.75 5.19C293.33 4.75 292.84 4.40 292.26 4.16C291.69 3.92 291.03 3.79 290.33 3.79C289.63 3.79 289.00 3.92 288.43 4.16C287.85 4.40 287.35 4.75 286.93 5.19C286.51 5.64 286.19 6.17 285.96 6.79C285.74 7.41 285.61 8.11 285.61 8.86C285.61 9.63 285.74 10.33 285.96 10.95C286.19 11.56 286.51 12.10 286.93 12.54C287.35 12.99 287.85 13.33 288.43 13.57C289.00 13.80 289.63 13.93 290.33 13.93C291.03 13.93 291.69 13.80 292.26 13.57C292.84 13.33 293.33 12.99 293.75 12.54C294.17 12.10 294.49 11.56 294.71 10.95C294.94 10.33 295.06 9.63 295.06 8.86ZM294.31 8.86C294.31 9.56 294.22 10.18 294.03 10.72C293.83 11.27 293.57 11.75 293.22 12.12C292.87 12.50 292.45 12.81 291.96 13.01C291.47 13.20 290.93 13.30 290.33 13.30C289.74 13.30 289.21 13.20 288.72 13.01C288.23 12.81 287.81 12.50 287.46 12.12C287.11 11.75 286.83 11.27 286.64 10.72C286.44 10.18 286.36 9.56 286.36 8.86C286.36 8.18 286.44 7.55 286.64 7.00C286.83 6.45 287.11 5.98 287.46 5.60C287.81 5.22 288.23 4.91 288.72 4.72C289.21 4.52 289.74 4.41 290.33 4.41C290.93 4.41 291.47 4.52 291.96 4.72C292.45 4.91 292.87 5.22 293.22 5.60C293.57 5.98 293.83 6.45 294.03 7.00C294.22 7.55 294.31 8.18 294.31 8.86ZM311.30 3.92L310.59 3.92L309.23 3.92L309.23 4.19C309.23 4.34 309.33 4.42 309.51 4.44L309.68 4.44C309.78 4.44 309.92 4.45 310.09 4.45C310.25 4.45 310.42 4.47 310.59 4.47L310.59 10.04C310.59 10.50 310.52 10.92 310.38 11.33C310.24 11.73 310.04 12.08 309.78 12.38C309.51 12.67 309.20 12.89 308.83 13.06C308.45 13.23 308.03 13.31 307.55 13.31C307.08 13.31 306.64 13.23 306.26 13.06C305.89 12.89 305.56 12.66 305.31 12.36C305.05 12.07 304.86 11.72 304.72 11.33C304.58 10.93 304.51 10.50 304.51 10.04L304.51 4.47C304.68 4.47 304.85 4.45 305.02 4.45C305.19 4.45 305.33 4.44 305.42 4.44L305.59 4.44C305.77 4.42 305.87 4.34 305.87 4.19L305.87 3.92L304.51 3.92L303.80 3.92L302.62 3.92L302.62 4.19C302.62 4.34 302.71 4.42 302.89 4.44L303.03 4.44C303.10 4.44 303.20 4.45 303.34 4.45C303.48 4.45 303.63 4.47 303.80 4.47L303.80 10.04C303.80 10.58 303.88 11.09 304.05 11.56C304.22 12.04 304.47 12.46 304.79 12.81C305.12 13.16 305.52 13.44 305.98 13.64C306.45 13.83 306.98 13.93 307.55 13.93C308.13 13.93 308.64 13.83 309.11 13.64C309.57 13.44 309.97 13.16 310.30 12.81C310.62 12.46 310.87 12.04 311.04 11.56C311.21 11.09 311.30 10.58 311.30 10.04L311.30 4.47C311.47 4.47 311.61 4.45 311.75 4.45C311.89 4.45 312.00 4.44 312.07 4.44L312.20 4.44C312.38 4.42 312.48 4.34 312.48 4.19L312.48 3.92ZM326.23 9.91C326.09 9.65 325.89 9.39 325.65 9.21C325.42 9.03 325.16 8.88 324.87 8.75C324.58 8.62 324.25 8.51 323.95 8.41C323.64 8.32 323.33 8.20 323.04 8.11C322.74 7.99 322.48 7.87 322.24 7.71C322.00 7.56 321.82 7.38 321.68 7.15C321.54 6.93 321.45 6.65 321.45 6.31C321.45 6.06 321.51 5.82 321.61 5.59C321.71 5.35 321.85 5.15 322.03 4.97C322.21 4.79 322.43 4.65 322.71 4.55C322.99 4.45 323.30 4.40 323.67 4.40C324.34 4.40 324.95 4.51 325.51 4.75C325.56 5.54 325.58 5.99 325.58 6.06C325.60 6.29 325.68 6.41 325.88 6.41L326.21 6.41L326.21 4.38C325.33 4.00 324.49 3.81 323.67 3.81C323.20 3.81 322.80 3.88 322.43 4.02C322.07 4.16 321.78 4.34 321.54 4.58C321.30 4.82 321.10 5.08 320.98 5.39C320.85 5.70 320.80 6.02 320.80 6.36C320.80 6.78 320.87 7.14 321.01 7.42C321.15 7.70 321.34 7.92 321.58 8.12C321.82 8.32 322.07 8.46 322.36 8.58C322.66 8.71 322.98 8.82 323.29 8.92C323.60 9.02 323.89 9.11 324.20 9.21C324.49 9.31 324.76 9.45 325.00 9.60C325.23 9.76 325.42 9.94 325.56 10.16C325.70 10.39 325.77 10.68 325.77 11.03C325.77 11.35 325.71 11.66 325.60 11.94C325.49 12.22 325.33 12.46 325.12 12.67C324.91 12.88 324.65 13.05 324.34 13.16C324.03 13.29 323.68 13.33 323.29 13.33C322.50 13.33 321.85 13.20 321.31 12.95C321.30 12.75 321.30 12.54 321.29 12.32C321.27 12.10 321.27 11.91 321.26 11.76C321.24 11.61 321.24 11.52 321.24 11.51C321.23 11.28 321.13 11.17 320.94 11.17L320.60 11.17L320.60 13.02L320.60 13.20L320.60 13.38C321.45 13.75 322.34 13.93 323.26 13.93C323.76 13.93 324.21 13.85 324.60 13.69C325.00 13.54 325.33 13.31 325.60 13.05C325.86 12.78 326.09 12.46 326.23 12.10C326.37 11.73 326.44 11.34 326.44 10.92C326.44 10.51 326.37 10.18 326.23 9.91ZM343.99 13.22L343.53 13.17L339.75 3.91L339.04 3.91L335.24 13.17L334.80 13.22C334.61 13.23 334.53 13.33 334.53 13.50L334.53 13.82L334.98 13.82L335.27 13.82L335.52 13.82L335.62 13.82L336.94 13.82L336.94 13.50C336.94 13.31 336.83 13.23 336.62 13.22C336.60 13.22 336.57 13.20 336.53 13.20C336.49 13.20 336.43 13.19 336.34 13.19C336.24 13.19 336.11 13.19 335.97 13.17L336.95 10.75L337.02 10.57L341.75 10.57L341.82 10.75L342.80 13.17C342.66 13.19 342.55 13.19 342.45 13.19C342.36 13.19 342.29 13.20 342.24 13.20C342.20 13.20 342.17 13.22 342.16 13.22C341.95 13.23 341.84 13.31 341.84 13.50L341.84 13.82L343.15 13.82L343.25 13.82L343.52 13.82L343.80 13.82L344.26 13.82L344.26 13.50C344.26 13.33 344.18 13.23 343.99 13.22ZM339.19 5.22C339.22 5.14 339.26 5.04 339.29 4.94C339.32 4.84 339.36 4.75 339.39 4.63C339.42 4.75 339.46 4.84 339.49 4.94C339.51 5.04 339.56 5.12 339.58 5.21L341.54 10.04L337.25 10.04ZM361.33 3.92L360.70 3.92L359.48 3.92L359.48 4.19C359.48 4.34 359.58 4.42 359.76 4.44L359.90 4.44C359.97 4.44 360.08 4.45 360.22 4.45C360.36 4.45 360.53 4.47 360.70 4.47L360.70 12.22C360.70 12.35 360.70 12.49 360.71 12.63L354.30 4.05C354.26 3.99 354.23 3.95 354.19 3.93C354.14 3.92 354.10 3.91 354.03 3.91L353.68 3.91L352.49 3.91L352.49 4.19C352.49 4.34 352.59 4.42 352.77 4.44L352.91 4.44C352.98 4.44 353.08 4.45 353.22 4.45C353.36 4.45 353.51 4.47 353.68 4.47L353.68 13.26C353.51 13.26 353.36 13.27 353.22 13.27C353.08 13.27 352.98 13.29 352.91 13.29L352.77 13.29C352.59 13.30 352.49 13.38 352.49 13.54L352.49 13.82L353.68 13.82L354.30 13.82L355.52 13.82L355.52 13.54C355.52 13.38 355.42 13.30 355.24 13.29L355.10 13.29C355.03 13.29 354.90 13.27 354.76 13.27C354.62 13.27 354.47 13.26 354.30 13.26L354.30 5.49C354.30 5.36 354.30 5.22 354.28 5.08L360.72 13.68C360.79 13.78 360.86 13.82 360.98 13.82L361.33 13.82L361.33 4.47C361.49 4.47 361.63 4.45 361.77 4.45C361.91 4.45 362.03 4.44 362.10 4.44L362.22 4.44C362.40 4.42 362.50 4.34 362.50 4.19L362.50 3.92ZM379.54 6.80C379.32 6.19 378.99 5.68 378.57 5.25C378.15 4.82 377.66 4.48 377.09 4.26C376.52 4.03 375.86 3.92 375.16 3.92L371.73 3.92L370.54 3.92L370.54 4.19C370.54 4.34 370.64 4.42 370.82 4.44L370.96 4.44C371.03 4.44 371.13 4.45 371.27 4.45C371.41 4.45 371.56 4.47 371.73 4.47L371.73 13.26C371.56 13.26 371.41 13.27 371.27 13.27C371.13 13.27 371.03 13.29 370.96 13.29L370.82 13.29C370.64 13.30 370.54 13.38 370.54 13.54L370.54 13.82L371.73 13.82L375.16 13.82C375.86 13.82 376.52 13.71 377.09 13.48C377.66 13.26 378.15 12.92 378.57 12.49C378.99 12.05 379.32 11.54 379.54 10.92C379.76 10.30 379.89 9.63 379.89 8.86C379.89 8.11 379.76 7.42 379.54 6.80ZM378.85 10.72C378.66 11.27 378.41 11.72 378.06 12.10C377.71 12.47 377.29 12.75 376.80 12.95C376.31 13.15 375.76 13.24 375.16 13.24L372.44 13.24L372.44 4.49L375.16 4.49C375.76 4.49 376.31 4.59 376.80 4.79C377.29 4.98 377.71 5.26 378.06 5.64C378.41 6.02 378.66 6.47 378.85 7.01C379.05 7.56 379.15 8.18 379.15 8.86C379.15 9.56 379.05 10.18 378.85 10.72ZM404.92 11.97C404.73 11.97 404.64 12.08 404.63 12.31C404.63 12.32 404.63 12.38 404.61 12.43C404.60 12.49 404.60 12.59 404.59 12.71C404.57 12.84 404.56 13.01 404.54 13.20L400.46 13.20L400.46 4.47C400.62 4.47 400.76 4.45 400.90 4.45C401.04 4.45 401.16 4.44 401.23 4.44L401.35 4.44C401.53 4.42 401.63 4.34 401.63 4.19L401.63 3.92L400.46 3.92L399.74 3.92L398.55 3.92L398.55 4.19C398.55 4.34 398.65 4.42 398.83 4.44L398.97 4.44C399.04 4.44 399.14 4.45 399.28 4.45C399.42 4.45 399.57 4.47 399.74 4.47L399.74 13.26C399.57 13.26 399.42 13.27 399.28 13.27C399.14 13.27 399.04 13.29 398.97 13.29L398.83 13.29C398.65 13.30 398.55 13.38 398.55 13.54L398.55 13.82L399.74 13.82L405.02 13.82L405.15 13.82L405.27 13.82L405.27 13.55L405.27 12.99L405.27 11.97L404.99 11.97ZM416.51 4.44C416.70 4.42 416.78 4.34 416.78 4.19L416.78 3.91L415.60 3.91L414.89 3.91L413.70 3.91L413.70 4.19C413.70 4.34 413.80 4.42 413.98 4.44L414.12 4.44C414.19 4.44 414.29 4.45 414.43 4.45C414.57 4.45 414.72 4.47 414.89 4.47L414.89 13.26C414.72 13.26 414.57 13.27 414.43 13.27C414.29 13.27 414.19 13.29 414.12 13.29L413.98 13.29C413.80 13.30 413.70 13.38 413.70 13.54L413.70 13.82L414.89 13.82L415.60 13.82L416.78 13.82L416.78 13.54C416.78 13.38 416.70 13.30 416.51 13.29L416.37 13.29C416.30 13.29 416.21 13.27 416.07 13.27C415.93 13.27 415.77 13.26 415.60 13.26L415.60 4.47C415.77 4.47 415.93 4.45 416.07 4.45C416.21 4.45 416.30 4.44 416.37 4.44ZM434.17 3.92L433.61 3.92L433.58 3.92L432.11 3.92L432.11 4.19C432.11 4.34 432.19 4.42 432.38 4.44L432.50 4.44C432.56 4.44 432.64 4.45 432.77 4.45C432.89 4.45 433.03 4.47 433.19 4.47L429.98 12.32C429.90 12.53 429.83 12.75 429.77 13.01C429.72 12.77 429.65 12.53 429.56 12.32L426.33 4.47C426.48 4.47 426.64 4.45 426.76 4.45C426.89 4.45 426.97 4.44 427.03 4.44L427.14 4.44C427.32 4.42 427.42 4.34 427.42 4.19L427.42 3.92L425.92 3.92L425.36 3.92L424.76 3.92L424.76 4.19C424.76 4.34 424.86 4.42 425.04 4.44L425.14 4.44C425.18 4.44 425.25 4.45 425.32 4.45C425.39 4.45 425.49 4.47 425.59 4.47L429.45 13.82L430.08 13.82L433.94 4.47C434.04 4.47 434.14 4.45 434.21 4.45C434.28 4.45 434.35 4.44 434.39 4.44L434.48 4.44C434.66 4.42 434.76 4.34 434.76 4.19L434.76 3.92ZM444.00 3.92L442.81 3.92L442.81 4.19C442.81 4.34 442.90 4.42 443.09 4.44L443.23 4.44C443.30 4.44 443.39 4.45 443.53 4.45C443.67 4.45 443.83 4.47 444.00 4.47L444.00 13.26C443.83 13.26 443.67 13.27 443.53 13.27C443.39 13.27 443.30 13.29 443.23 13.29L443.09 13.29C442.90 13.30 442.82 13.38 442.82 13.54L442.82 13.82L444.00 13.82L449.93 13.82L449.93 13.22L449.93 11.76L449.58 11.76C449.39 11.76 449.30 11.89 449.29 12.11C449.29 12.14 449.27 12.19 449.27 12.29C449.27 12.39 449.27 12.53 449.26 12.74C449.25 12.95 449.23 13.09 449.23 13.22L444.71 13.22L444.71 9.09L448.66 9.09L448.66 8.51L444.71 8.51L444.71 4.51L449.23 4.51C449.26 5.12 449.29 5.50 449.29 5.63C449.30 5.85 449.39 5.96 449.58 5.96L449.93 5.96L449.93 4.51L449.93 3.92ZM464.24 9.91C464.10 9.65 463.90 9.39 463.67 9.21C463.43 9.03 463.18 8.88 462.88 8.75C462.59 8.62 462.27 8.51 461.96 8.41C461.65 8.32 461.34 8.20 461.05 8.11C460.75 7.99 460.49 7.87 460.25 7.71C460.01 7.56 459.83 7.38 459.69 7.15C459.55 6.93 459.47 6.65 459.47 6.31C459.47 6.06 459.52 5.82 459.62 5.59C459.72 5.35 459.86 5.15 460.04 4.97C460.22 4.79 460.45 4.65 460.73 4.55C461.01 4.45 461.31 4.40 461.68 4.40C462.35 4.40 462.97 4.51 463.53 4.75C463.57 5.54 463.60 5.99 463.60 6.06C463.61 6.29 463.69 6.41 463.89 6.41L464.23 6.41L464.23 4.38C463.34 4.00 462.50 3.81 461.68 3.81C461.22 3.81 460.81 3.88 460.45 4.02C460.08 4.16 459.79 4.34 459.55 4.58C459.31 4.82 459.12 5.08 458.99 5.39C458.86 5.70 458.81 6.02 458.81 6.36C458.81 6.78 458.88 7.14 459.02 7.42C459.16 7.70 459.35 7.92 459.59 8.12C459.83 8.32 460.08 8.46 460.38 8.58C460.67 8.71 460.99 8.82 461.30 8.92C461.61 9.02 461.90 9.11 462.21 9.21C462.50 9.31 462.77 9.45 463.01 9.60C463.25 9.76 463.43 9.94 463.57 10.16C463.71 10.39 463.78 10.68 463.78 11.03C463.78 11.35 463.72 11.66 463.61 11.94C463.50 12.22 463.34 12.46 463.13 12.67C462.92 12.88 462.66 13.05 462.35 13.16C462.04 13.29 461.69 13.33 461.30 13.33C460.52 13.33 459.86 13.20 459.33 12.95C459.31 12.75 459.31 12.54 459.30 12.32C459.28 12.10 459.28 11.91 459.27 11.76C459.26 11.61 459.26 11.52 459.26 11.51C459.24 11.28 459.14 11.17 458.95 11.17L458.61 11.17L458.61 13.02L458.61 13.20L458.61 13.38C459.47 13.75 460.35 13.93 461.27 13.93C461.78 13.93 462.22 13.85 462.62 13.69C463.01 13.54 463.34 13.31 463.61 13.05C463.88 12.78 464.10 12.46 464.24 12.10C464.38 11.73 464.45 11.34 464.45 10.92C464.45 10.51 464.38 10.18 464.24 9.91ZM490.20 9.52C489.78 9.11 489.17 8.86 488.39 8.75C488.71 8.67 488.99 8.55 489.24 8.40C489.50 8.25 489.72 8.08 489.89 7.87C490.06 7.66 490.20 7.43 490.28 7.20C490.36 6.96 490.42 6.71 490.42 6.44C490.42 6.05 490.34 5.68 490.21 5.38C490.08 5.07 489.87 4.80 489.61 4.58C489.34 4.37 489.01 4.20 488.59 4.09C488.17 3.98 487.68 3.92 487.12 3.92L484.27 3.92L483.08 3.92L483.08 4.19C483.08 4.34 483.18 4.42 483.36 4.44L483.50 4.44C483.57 4.44 483.67 4.45 483.81 4.45C483.95 4.45 484.11 4.47 484.27 4.47L484.27 13.26C484.11 13.26 483.95 13.27 483.81 13.27C483.67 13.27 483.57 13.29 483.50 13.29L483.36 13.29C483.18 13.30 483.10 13.38 483.10 13.54L483.10 13.82L484.27 13.82L487.48 13.82C488.01 13.82 488.47 13.76 488.89 13.64C489.31 13.51 489.66 13.34 489.94 13.10C490.22 12.87 490.45 12.59 490.60 12.25C490.76 11.91 490.83 11.54 490.83 11.12C490.83 10.46 490.62 9.93 490.20 9.52ZM484.99 4.48L487.12 4.48C488.00 4.48 488.66 4.66 489.08 5.00C489.50 5.35 489.71 5.84 489.71 6.51C489.71 6.76 489.66 7.03 489.57 7.27C489.47 7.50 489.31 7.71 489.10 7.91C488.89 8.11 488.63 8.26 488.31 8.37C487.98 8.48 487.59 8.55 487.13 8.55L484.99 8.55ZM489.44 12.68C488.99 13.06 488.33 13.24 487.47 13.24L484.99 13.24L484.99 9.07L487.48 9.07C487.90 9.07 488.26 9.11 488.59 9.21C488.91 9.31 489.19 9.45 489.41 9.62C489.64 9.80 489.80 10.00 489.93 10.25C490.04 10.50 490.11 10.79 490.11 11.10C490.11 11.79 489.89 12.31 489.44 12.68ZM500.21 3.92L499.02 3.92L499.02 4.19C499.02 4.34 499.11 4.42 499.30 4.44L499.44 4.44C499.51 4.44 499.60 4.45 499.74 4.45C499.88 4.45 500.04 4.47 500.21 4.47L500.21 13.26C500.04 13.26 499.88 13.27 499.74 13.27C499.60 13.27 499.51 13.29 499.44 13.29L499.30 13.29C499.11 13.30 499.03 13.38 499.03 13.54L499.03 13.82L500.21 13.82L506.14 13.82L506.14 13.22L506.14 11.76L505.79 11.76C505.60 11.76 505.51 11.89 505.50 12.11C505.50 12.14 505.48 12.19 505.48 12.29C505.48 12.39 505.48 12.53 505.47 12.74C505.46 12.95 505.44 13.09 505.44 13.22L500.92 13.22L500.92 9.09L504.87 9.09L504.87 8.51L500.92 8.51L500.92 4.51L505.44 4.51C505.47 5.12 505.50 5.50 505.50 5.63C505.51 5.85 505.60 5.96 505.79 5.96L506.14 5.96L506.14 4.51L506.14 3.92ZM521.85 3.92L521.50 3.92L515.91 3.92L514.72 3.92L514.72 4.19C514.72 4.34 514.82 4.42 515.00 4.44L515.14 4.44C515.21 4.44 515.31 4.45 515.45 4.45C515.59 4.45 515.75 4.47 515.91 4.47L515.91 13.26C515.75 13.26 515.59 13.27 515.45 13.27C515.31 13.27 515.21 13.29 515.14 13.29L515.00 13.29C514.82 13.30 514.72 13.38 514.72 13.54L514.72 13.82L515.91 13.82L516.63 13.82L517.80 13.82L517.80 13.54C517.80 13.38 517.72 13.30 517.54 13.29L517.40 13.29C517.33 13.29 517.23 13.27 517.09 13.27C516.95 13.27 516.80 13.26 516.63 13.26L516.63 9.27L520.32 9.27L520.32 8.67L516.63 8.67L516.63 4.51L521.23 4.51C521.26 5.18 521.29 5.56 521.29 5.63C521.30 5.85 521.40 5.96 521.60 5.96L521.93 5.96L521.93 3.92ZM539.32 8.86C539.32 8.11 539.20 7.41 538.97 6.79C538.75 6.17 538.43 5.64 538.01 5.19C537.59 4.75 537.10 4.40 536.52 4.16C535.95 3.92 535.29 3.79 534.59 3.79C533.89 3.79 533.26 3.92 532.69 4.16C532.11 4.40 531.61 4.75 531.19 5.19C530.77 5.64 530.45 6.17 530.22 6.79C530.00 7.41 529.87 8.11 529.87 8.86C529.87 9.63 530.00 10.33 530.22 10.95C530.45 11.56 530.77 12.10 531.19 12.54C531.61 12.99 532.11 13.33 532.69 13.57C533.26 13.80 533.89 13.93 534.59 13.93C535.29 13.93 535.95 13.80 536.52 13.57C537.10 13.33 537.59 12.99 538.01 12.54C538.43 12.10 538.75 11.56 538.97 10.95C539.20 10.33 539.32 9.63 539.32 8.86ZM538.57 8.86C538.57 9.56 538.48 10.18 538.29 10.72C538.09 11.27 537.82 11.75 537.47 12.12C537.12 12.50 536.70 12.81 536.21 13.01C535.72 13.20 535.19 13.30 534.59 13.30C534.00 13.30 533.47 13.20 532.98 13.01C532.49 12.81 532.07 12.50 531.72 12.12C531.37 11.75 531.09 11.27 530.89 10.72C530.70 10.18 530.61 9.56 530.61 8.86C530.61 8.18 530.70 7.55 530.89 7.00C531.09 6.45 531.37 5.98 531.72 5.60C532.07 5.22 532.49 4.91 532.98 4.72C533.47 4.52 534.00 4.41 534.59 4.41C535.19 4.41 535.72 4.52 536.21 4.72C536.70 4.91 537.12 5.22 537.47 5.60C537.82 5.98 538.09 6.45 538.29 7.00C538.48 7.55 538.57 8.18 538.57 8.86ZM555.59 13.29L555.49 13.29L555.31 13.29C555.23 13.29 555.14 13.27 555.06 13.27L552.09 9.53C552.01 9.42 551.89 9.32 551.78 9.25C552.22 9.21 552.61 9.11 552.96 8.96C553.31 8.81 553.59 8.61 553.84 8.37C554.08 8.13 554.27 7.85 554.40 7.55C554.53 7.24 554.60 6.89 554.60 6.51C554.60 5.66 554.32 5.03 553.76 4.58C553.20 4.14 552.34 3.92 551.19 3.92L548.79 3.92L547.61 3.92L547.61 4.19C547.61 4.34 547.69 4.42 547.88 4.44L548.02 4.44C548.09 4.44 548.18 4.45 548.32 4.45C548.46 4.45 548.62 4.47 548.79 4.47L548.79 13.26C548.62 13.26 548.46 13.27 548.32 13.27C548.18 13.27 548.09 13.29 548.02 13.29L547.88 13.29C547.69 13.30 547.60 13.38 547.60 13.54L547.60 13.82L548.79 13.82L549.50 13.82L550.68 13.82L550.68 13.54C550.68 13.38 550.58 13.30 550.40 13.29L550.26 13.29C550.19 13.29 550.09 13.27 549.95 13.27C549.81 13.27 549.67 13.26 549.50 13.26L549.50 9.34L550.68 9.34C550.87 9.34 551.01 9.35 551.10 9.39C551.18 9.44 551.26 9.52 551.35 9.62L554.53 13.64C554.58 13.71 554.62 13.75 554.68 13.78C554.74 13.80 554.81 13.82 554.88 13.82L554.95 13.82L555.49 13.82L555.86 13.82L555.86 13.54C555.86 13.38 555.77 13.30 555.59 13.29ZM551.10 8.81L549.50 8.81L549.50 4.48L551.19 4.48C552.08 4.48 552.75 4.66 553.21 5.00C553.67 5.33 553.90 5.87 553.90 6.57C553.90 6.92 553.84 7.21 553.71 7.49C553.59 7.77 553.39 7.99 553.15 8.19C552.92 8.39 552.62 8.55 552.27 8.65C551.92 8.75 551.53 8.81 551.10 8.81ZM565.25 3.92L564.06 3.92L564.06 4.19C564.06 4.34 564.16 4.42 564.34 4.44L564.48 4.44C564.55 4.44 564.65 4.45 564.79 4.45C564.93 4.45 565.08 4.47 565.25 4.47L565.25 13.26C565.08 13.26 564.93 13.27 564.79 13.27C564.65 13.27 564.55 13.29 564.48 13.29L564.34 13.29C564.16 13.30 564.07 13.38 564.07 13.54L564.07 13.82L565.25 13.82L571.19 13.82L571.19 13.22L571.19 11.76L570.84 11.76C570.64 11.76 570.56 11.89 570.54 12.11C570.54 12.14 570.53 12.19 570.53 12.29C570.53 12.39 570.53 12.53 570.51 12.74C570.50 12.95 570.49 13.09 570.49 13.22L565.96 13.22L565.96 9.09L569.91 9.09L569.91 8.51L565.96 8.51L565.96 4.51L570.49 4.51C570.51 5.12 570.54 5.50 570.54 5.63C570.56 5.85 570.64 5.96 570.84 5.96L571.19 5.96L571.19 4.51L571.19 3.92ZM599.87 4.44C600.05 4.42 600.15 4.34 600.15 4.19L600.15 3.92L598.98 3.92L598.25 3.92L597.07 3.92L597.07 4.19C597.07 4.34 597.17 4.42 597.35 4.44L597.48 4.44C597.55 4.44 597.66 4.45 597.80 4.45C597.94 4.45 598.08 4.47 598.25 4.47L598.25 8.53L592.05 8.53L592.05 4.47C592.21 4.47 592.37 4.45 592.51 4.45C592.65 4.45 592.75 4.44 592.82 4.44L592.96 4.44C593.14 4.42 593.22 4.34 593.22 4.19L593.22 3.92L592.05 3.92L591.33 3.92L590.14 3.92L590.14 4.19C590.14 4.34 590.24 4.42 590.42 4.44L590.56 4.44C590.63 4.44 590.73 4.45 590.87 4.45C591.01 4.45 591.16 4.47 591.33 4.47L591.33 13.26C591.16 13.26 591.01 13.27 590.87 13.27C590.73 13.27 590.63 13.29 590.56 13.29L590.42 13.29C590.24 13.30 590.14 13.38 590.14 13.54L590.14 13.82L591.33 13.82L592.05 13.82L593.22 13.82L593.22 13.54C593.22 13.38 593.14 13.30 592.96 13.29L592.82 13.29C592.75 13.29 592.65 13.27 592.51 13.27C592.37 13.27 592.21 13.26 592.05 13.26L592.05 9.07L598.25 9.07L598.25 13.26C598.08 13.26 597.94 13.27 597.80 13.27C597.66 13.27 597.55 13.29 597.48 13.29L597.35 13.29C597.17 13.30 597.07 13.38 597.07 13.54L597.07 13.82L598.25 13.82L598.98 13.82L600.15 13.82L600.15 13.54C600.15 13.38 600.05 13.30 599.87 13.29L599.75 13.29C599.68 13.29 599.56 13.27 599.42 13.27C599.28 13.27 599.14 13.26 598.98 13.26L598.98 4.47C599.14 4.47 599.28 4.45 599.42 4.45C599.56 4.45 599.68 4.44 599.75 4.44ZM609.69 3.92L608.50 3.92L608.50 4.19C608.50 4.34 608.59 4.42 608.78 4.44L608.92 4.44C608.99 4.44 609.08 4.45 609.22 4.45C609.36 4.45 609.52 4.47 609.69 4.47L609.69 13.26C609.52 13.26 609.36 13.27 609.22 13.27C609.08 13.27 608.99 13.29 608.92 13.29L608.78 13.29C608.59 13.30 608.51 13.38 608.51 13.54L608.51 13.82L609.69 13.82L615.62 13.82L615.62 13.22L615.62 11.76L615.27 11.76C615.08 11.76 614.99 11.89 614.98 12.11C614.98 12.14 614.96 12.19 614.96 12.29C614.96 12.39 614.96 12.53 614.95 12.74C614.94 12.95 614.92 13.09 614.92 13.22L610.40 13.22L610.40 9.09L614.35 9.09L614.35 8.51L610.40 8.51L610.40 4.51L614.92 4.51C614.95 5.12 614.98 5.50 614.98 5.63C614.99 5.85 615.08 5.96 615.27 5.96L615.62 5.96L615.62 4.51L615.62 3.92ZM643.58 6.80C643.36 6.19 643.03 5.68 642.61 5.25C642.19 4.82 641.70 4.48 641.13 4.26C640.56 4.03 639.90 3.92 639.20 3.92L635.77 3.92L634.58 3.92L634.58 4.19C634.58 4.34 634.68 4.42 634.86 4.44L635.00 4.44C635.07 4.44 635.17 4.45 635.31 4.45C635.45 4.45 635.60 4.47 635.77 4.47L635.77 13.26C635.60 13.26 635.45 13.27 635.31 13.27C635.17 13.27 635.07 13.29 635.00 13.29L634.86 13.29C634.68 13.30 634.58 13.38 634.58 13.54L634.58 13.82L635.77 13.82L639.20 13.82C639.90 13.82 640.56 13.71 641.13 13.48C641.70 13.26 642.19 12.92 642.61 12.49C643.03 12.05 643.36 11.54 643.58 10.92C643.80 10.30 643.93 9.63 643.93 8.86C643.93 8.11 643.80 7.42 643.58 6.80ZM642.89 10.72C642.70 11.27 642.45 11.72 642.10 12.10C641.75 12.47 641.33 12.75 640.84 12.95C640.35 13.15 639.80 13.24 639.20 13.24L636.48 13.24L636.48 4.49L639.20 4.49C639.80 4.49 640.35 4.59 640.84 4.79C641.33 4.98 641.75 5.26 642.10 5.64C642.45 6.02 642.70 6.47 642.89 7.01C643.09 7.56 643.19 8.18 643.19 8.86C643.19 9.56 643.09 10.18 642.89 10.72ZM655.03 4.44C655.21 4.42 655.30 4.34 655.30 4.19L655.30 3.91L654.12 3.91L653.41 3.91L652.22 3.91L652.22 4.19C652.22 4.34 652.32 4.42 652.50 4.44L652.64 4.44C652.71 4.44 652.81 4.45 652.95 4.45C653.09 4.45 653.24 4.47 653.41 4.47L653.41 13.26C653.24 13.26 653.09 13.27 652.95 13.27C652.81 13.27 652.71 13.29 652.64 13.29L652.50 13.29C652.32 13.30 652.22 13.38 652.22 13.54L652.22 13.82L653.41 13.82L654.12 13.82L655.30 13.82L655.30 13.54C655.30 13.38 655.21 13.30 655.03 13.29L654.89 13.29C654.82 13.29 654.72 13.27 654.58 13.27C654.44 13.27 654.29 13.26 654.12 13.26L654.12 4.47C654.29 4.47 654.44 4.45 654.58 4.45C654.72 4.45 654.82 4.44 654.89 4.44ZM664.83 3.92L663.64 3.92L663.64 4.19C663.64 4.34 663.74 4.42 663.92 4.44L664.06 4.44C664.13 4.44 664.23 4.45 664.37 4.45C664.51 4.45 664.66 4.47 664.83 4.47L664.83 13.26C664.66 13.26 664.51 13.27 664.37 13.27C664.23 13.27 664.13 13.29 664.06 13.29L663.92 13.29C663.74 13.30 663.66 13.38 663.66 13.54L663.66 13.82L664.83 13.82L670.77 13.82L670.77 13.22L670.77 11.76L670.42 11.76C670.22 11.76 670.14 11.89 670.12 12.11C670.12 12.14 670.11 12.19 670.11 12.29C670.11 12.39 670.11 12.53 670.10 12.74C670.08 12.95 670.07 13.09 670.07 13.22L665.55 13.22L665.55 9.09L669.49 9.09L669.49 8.51L665.55 8.51L665.55 4.51L670.07 4.51C670.10 5.12 670.12 5.50 670.12 5.63C670.14 5.85 670.22 5.96 670.42 5.96L670.77 5.96L670.77 4.51L670.77 3.92ZM685.08 9.91C684.94 9.65 684.74 9.39 684.50 9.21C684.26 9.03 684.01 8.88 683.72 8.75C683.42 8.62 683.10 8.51 682.79 8.41C682.49 8.32 682.18 8.20 681.88 8.11C681.59 7.99 681.32 7.87 681.09 7.71C680.85 7.56 680.67 7.38 680.53 7.15C680.39 6.93 680.30 6.65 680.30 6.31C680.30 6.06 680.36 5.82 680.46 5.59C680.55 5.35 680.69 5.15 680.88 4.97C681.06 4.79 681.28 4.65 681.56 4.55C681.84 4.45 682.15 4.40 682.51 4.40C683.19 4.40 683.80 4.51 684.36 4.75C684.40 5.54 684.43 5.99 684.43 6.06C684.45 6.29 684.53 6.41 684.73 6.41L685.06 6.41L685.06 4.38C684.18 4.00 683.34 3.81 682.51 3.81C682.05 3.81 681.65 3.88 681.28 4.02C680.92 4.16 680.62 4.34 680.39 4.58C680.15 4.82 679.95 5.08 679.83 5.39C679.70 5.70 679.64 6.02 679.64 6.36C679.64 6.78 679.71 7.14 679.85 7.42C679.99 7.70 680.19 7.92 680.43 8.12C680.67 8.32 680.92 8.46 681.21 8.58C681.51 8.71 681.83 8.82 682.14 8.92C682.44 9.02 682.74 9.11 683.05 9.21C683.34 9.31 683.61 9.45 683.84 9.60C684.08 9.76 684.26 9.94 684.40 10.16C684.54 10.39 684.61 10.68 684.61 11.03C684.61 11.35 684.56 11.66 684.45 11.94C684.33 12.22 684.18 12.46 683.97 12.67C683.76 12.88 683.49 13.05 683.19 13.16C682.88 13.29 682.53 13.33 682.14 13.33C681.35 13.33 680.69 13.20 680.16 12.95C680.15 12.75 680.15 12.54 680.13 12.32C680.12 12.10 680.12 11.91 680.11 11.76C680.09 11.61 680.09 11.52 680.09 11.51C680.08 11.28 679.98 11.17 679.78 11.17L679.45 11.17L679.45 13.02L679.45 13.20L679.45 13.38C680.30 13.75 681.18 13.93 682.11 13.93C682.61 13.93 683.06 13.85 683.45 13.69C683.84 13.54 684.18 13.31 684.45 13.05C684.71 12.78 684.94 12.46 685.08 12.10C685.22 11.73 685.29 11.34 685.29 10.92C685.29 10.51 685.22 10.18 685.08 9.91Z"></path></g></svg>